
<svg id="Слой_1" xmlns="http://www.w3.org/2000/svg" xmlns:xlink="http://www.w3.org/1999/xlink" x="0px" y="0px"
	height="64" width="265" viewBox="0 0 363.5 106.9" style="enable-background:new 0 0 363.5 106.9;" xml:space="preserve">
<style type="text/css">
	.st0{fill:#2eca6a;}
	.st1{fill:#283049;}
</style>
<title>Ресурс 4</title>
	<polygon class="st0" points="67.9,0 29.3,15 29.3,35.3 0,46.9 0,103.1 7.3,103.1 7.3,92.7 21.6,86.7 21.6,78.8 7.3,84.8 7.3,72.5 
		21.6,66.5 21.6,58.6 7.3,64.7 7.3,51.9 29.3,43.1 29.3,103.1 36.6,103.1 36.6,80.7 56.8,72.6 56.8,64.7 36.6,72.8 36.6,60.4 
		56.8,52.3 56.8,44.5 36.6,52.6 36.6,40.2 56.8,32.1 56.8,24.3 36.6,32.4 36.6,19.9 67,8.1 66.8,103.1 90.3,103.1 90.3,15.3 "/>
	<path class="st1" d="M117.9,54.1c0-3.1,0.6-6.2,1.8-9c2.4-5.6,6.9-10.2,12.5-12.6c5.8-2.5,12.3-2.5,18.1,0c5.7,2.5,10.2,7,12.6,12.6
		c2.5,5.8,2.5,12.3,0,18.1c-2.4,5.6-6.9,10.1-12.6,12.5c-2.9,1.2-6,1.8-9.1,1.8c-12.8,0.1-23.3-10.1-23.4-22.9
		C117.9,54.4,117.9,54.3,117.9,54.1z M124.2,54.1c0,2.3,0.4,4.7,1.3,6.8c0.9,2.1,2.1,3.9,3.7,5.5c1.6,1.6,3.4,2.9,5.4,3.8
		c4.3,1.8,9.1,1.8,13.4,0c2-0.9,3.8-2.2,5.4-3.7c1.5-1.6,2.8-3.5,3.6-5.5c1.8-4.4,1.8-9.3,0-13.6c-0.9-2.1-2.1-4-3.6-5.6
		c-1.5-1.6-3.4-3-5.5-3.8c-2.1-0.9-4.4-1.4-6.7-1.4c-2.3,0-4.6,0.5-6.8,1.4c-4.1,1.8-7.4,5.2-9,9.4C124.7,49.5,124.3,51.8,124.2,54.1
		z"/>
	<path class="st1" d="M182.7,77.6c-2.3,0-4.6-0.5-6.7-1.6c-2-1.1-3.7-2.7-4.8-4.7c-1.2-2.3-1.9-4.9-1.8-7.5c-0.1-2.7,0.6-5.3,1.8-7.6
		c1.2-2.1,2.9-3.7,4.9-4.9c2.1-1.1,4.4-1.7,6.8-1.7c2.2-0.1,4.4,0.5,6.2,1.7c1.6,1,2.9,2.4,3.8,4l-0.4,1l0.6-5.5h5.4V77h-5.9v-6.8
		l0.7,1.5c-0.3,0.6-0.7,1.1-1.2,1.6c-0.7,0.7-1.4,1.4-2.2,2c-1,0.7-2.1,1.3-3.2,1.7C185.5,77.5,184.1,77.7,182.7,77.6z M184.2,72.8
		c1.4,0,2.7-0.3,4-0.8c1.2-0.5,2.2-1.3,2.9-2.3c0.8-1.1,1.4-2.3,1.6-3.6v-5.1c-0.3-1.2-1-2.4-1.8-3.3c-0.8-0.9-1.9-1.7-3-2.2
		c-1.2-0.5-2.5-0.8-3.9-0.8c-3.1,0-6,1.6-7.5,4.3c-0.8,1.5-1.2,3.1-1.2,4.8c0,1.6,0.4,3.2,1.2,4.6c0.8,1.4,1.9,2.5,3.2,3.3
		C181.2,72.3,182.7,72.8,184.2,72.8z"/>
	<path class="st1" d="M207,77V27.9h6V77H207z M211.1,68.6l-0.6-5.7l15.9-12.7l3.6,3.1L211.1,68.6z M219.4,59.6L231.3,77h-6.9
		l-9.1-14.1L219.4,59.6z"/>
	<path class="st1" d="M252.9,31.1h30.5V37h-12.3v40h-6.1V37h-12.1V31.1z"/>
	<path class="st1" d="M291.2,50.8l0.6,7.6l-0.2-1.1c0.7-1.6,1.7-2.9,2.9-4.1c1.2-1.1,2.5-2,4-2.6c1.2-0.5,2.4-0.8,3.7-1l-0.2,6
		c-1.8-0.2-3.7,0.2-5.3,1.1c-1.5,0.9-2.7,2.1-3.5,3.5c-0.8,1.4-1.3,3-1.3,4.7v12h-5.9V50.8H291.2z"/>
	<path class="st1" d="M319,77.6c-2.7,0.1-5.4-0.6-7.7-1.8c-2.1-1.2-3.8-2.9-5-5c-1.2-2.2-1.8-4.7-1.8-7.2c0-2.5,0.7-4.9,2-7
		c1.3-2.1,3.1-3.8,5.3-5.1c2.2-1.3,4.8-1.9,7.4-1.9c3.2-0.1,6.2,0.9,8.6,3c2.4,2.2,4,5.2,4.7,8.4l-21.8,7.7l-1.4-3.5l17.7-6.5
		l-1.2,0.9c-0.5-1.4-1.4-2.6-2.5-3.6c-1.3-1.1-3-1.6-4.6-1.5c-3-0.1-5.8,1.6-7.2,4.3c-0.7,1.4-1.1,3-1.1,4.7c0,1.7,0.4,3.3,1.1,4.7
		c0.7,1.4,1.8,2.5,3.1,3.3c1.4,0.8,2.9,1.2,4.5,1.2c1.1,0,2.3-0.2,3.3-0.6c1.1-0.4,2.1-1,3.1-1.7l2.7,4.4c-1.4,0.9-2.9,1.6-4.4,2.2
		C322.2,77.4,320.6,77.6,319,77.6z"/>
	<path class="st1" d="M350,77.6c-2.7,0.1-5.4-0.6-7.7-1.8c-2.1-1.2-3.8-2.9-5-5c-1.2-2.2-1.8-4.7-1.8-7.2c0-2.5,0.7-4.9,2-7
		c1.3-2.1,3.1-3.8,5.3-5.1c2.2-1.3,4.8-1.9,7.4-1.9c3.1-0.1,6.2,0.9,8.6,3c2.4,2.2,4,5.2,4.7,8.4l-21.7,7.6l-1.4-3.5l17.7-6.5
		l-1.2,0.9c-0.5-1.4-1.4-2.6-2.5-3.5c-1.3-1.1-3-1.6-4.6-1.5c-3-0.1-5.8,1.6-7.2,4.3c-0.7,1.4-1.1,3-1.1,4.7c0,1.7,0.4,3.3,1.1,4.7
		c0.7,1.4,1.8,2.5,3.1,3.3c1.4,0.8,2.9,1.2,4.5,1.2c1.1,0,2.3-0.2,3.3-0.6c1.1-0.4,2.1-1,3.1-1.7l2.7,4.4c-1.4,0.9-2.9,1.6-4.4,2.2
		C353.3,77.4,351.6,77.6,350,77.6z"/>
	<path class="st1" d="M119.5,91.9l0.1,3.1l-0.2-0.4c0.2-0.6,0.6-1.2,1.1-1.7c0.5-0.4,1-0.8,1.6-1c0.5-0.2,1.1-0.4,1.7-0.4v1.2
		c-0.7,0-1.5,0.2-2.1,0.5c-0.6,0.3-1.1,0.8-1.5,1.4c-0.4,0.6-0.6,1.3-0.6,2v5.4h-1.2V91.9H119.5z"/>
	<path class="st1" d="M131.2,102.3c-1,0-1.9-0.2-2.8-0.7c-0.8-0.4-1.5-1.1-1.9-1.9c-0.5-0.8-0.7-1.8-0.7-2.7c0-0.9,0.2-1.9,0.7-2.7
		c0.5-0.8,1.2-1.5,2-1.9c0.8-0.5,1.8-0.7,2.7-0.7c1.1,0,2.2,0.4,3,1.1c0.8,0.7,1.5,1.7,1.8,2.8l-8.9,3.4l-0.4-0.9l8.1-3.2l-0.3,0.4
		c-0.3-0.7-0.8-1.3-1.3-1.8c-0.6-0.5-1.4-0.8-2.2-0.8c-0.7,0-1.5,0.2-2.1,0.6c-0.6,0.4-1.1,0.9-1.5,1.5c-0.4,0.7-0.6,1.4-0.6,2.2
		c0,0.7,0.2,1.5,0.5,2.1c0.3,0.7,0.9,1.2,1.5,1.6c0.7,0.4,1.4,0.6,2.2,0.6c0.5,0,1.1-0.1,1.6-0.3c0.5-0.2,1-0.5,1.4-0.8l0.6,0.9
		c-0.5,0.4-1.1,0.7-1.7,0.9C132.5,102.1,131.9,102.3,131.2,102.3z"/>
	<path class="st1" d="M143.6,102.3c-0.9,0-1.8-0.2-2.6-0.7c-0.8-0.4-1.4-1.1-1.9-1.8c-0.9-1.8-0.9-3.9,0-5.7c0.5-0.8,1.2-1.4,2-1.8
		c0.9-0.4,1.9-0.6,2.8-0.6c1.8,0,3.5,1.1,4.3,2.8l-0.2,0.4l0.1-2.9h1.1v10.1h-1.2v-3.1l0.3,0.5c-0.1,0.4-0.4,0.7-0.6,1
		c-0.3,0.4-0.7,0.7-1.1,0.9c-0.4,0.3-0.9,0.5-1.4,0.7C144.7,102.2,144.2,102.3,143.6,102.3z M143.9,101.3c0.7,0,1.4-0.2,2.1-0.5
		c0.6-0.3,1.1-0.8,1.5-1.3c0.4-0.6,0.6-1.3,0.6-2V96c-0.1-0.6-0.4-1.2-0.8-1.7c-0.4-0.5-0.9-0.9-1.5-1.2c-1.3-0.6-2.8-0.6-4,0.1
		c-0.6,0.4-1.2,0.9-1.5,1.5c-0.4,0.7-0.6,1.5-0.6,2.3c0,0.8,0.2,1.5,0.6,2.2c0.4,0.6,0.9,1.2,1.5,1.6
		C142.4,101,143.2,101.2,143.9,101.3L143.9,101.3z"/>
	<path class="st1" d="M153.9,82.4h1.2v19.7h-1.2V82.4z"/>
	<path class="st1" d="M160.8,87.5h1.2v4.6h3.1v1H162v9h-1.2V93h-2.1v-1h2.1V87.5z"/>
	<path class="st1" d="M171.4,102.2l-4.8-10.2h1.4l4.4,9.6L171.4,102.2z M169.1,106.9l6.6-15h1.2l-6.5,15H169.1z"/>
	<path class="st1" d="M195.7,101.1c-0.5,0.4-1,0.7-1.6,0.9c-0.6,0.2-1.2,0.3-1.8,0.3c-1,0-1.9-0.2-2.8-0.7c-0.8-0.4-1.5-1.1-1.9-1.9
		c-0.5-0.8-0.7-1.8-0.7-2.7c0-1,0.2-1.9,0.7-2.7c0.5-0.8,1.1-1.4,1.9-1.9c0.8-0.5,1.7-0.7,2.6-0.7c0.7,0,1.4,0.1,2,0.3
		c0.6,0.2,1.1,0.5,1.6,0.9l-0.6,0.8c-0.4-0.3-0.8-0.6-1.3-0.7c-0.5-0.2-1-0.3-1.6-0.3c-0.7,0-1.5,0.2-2.1,0.6c-2,1.2-2.6,3.8-1.5,5.8
		c0.4,0.6,0.9,1.2,1.5,1.5c0.7,0.4,1.4,0.6,2.2,0.6c0.5,0,1-0.1,1.4-0.2c0.4-0.2,0.8-0.4,1.2-0.7L195.7,101.1z"/>
	<path class="st1" d="M198.1,96.9c0-0.9,0.2-1.9,0.7-2.7c0.5-0.8,1.1-1.5,1.9-1.9c1.7-0.9,3.8-0.9,5.5,0c0.8,0.5,1.5,1.1,1.9,1.9
		c0.9,1.7,0.9,3.7,0,5.4c-0.5,0.8-1.1,1.5-1.9,1.9c-1.7,0.9-3.8,0.9-5.5,0c-0.8-0.4-1.5-1.1-1.9-1.9
		C198.3,98.8,198.1,97.9,198.1,96.9z M199.3,96.9c0,0.8,0.2,1.5,0.6,2.2c0.4,0.6,0.9,1.2,1.5,1.5c1.3,0.8,2.9,0.8,4.2,0
		c0.6-0.4,1.1-0.9,1.5-1.5c0.4-0.7,0.6-1.4,0.6-2.2c0-0.8-0.2-1.5-0.6-2.2c-0.4-0.6-0.9-1.2-1.5-1.6c-0.6-0.4-1.4-0.6-2.1-0.6
		c-0.8,0-1.5,0.2-2.1,0.6c-0.6,0.4-1.1,0.9-1.5,1.6C199.5,95.5,199.3,96.2,199.3,96.9L199.3,96.9z"/>
	<path class="st1" d="M213.6,91.9l0.1,2.8l-0.2-0.3c0.3-0.9,0.9-1.6,1.7-2.1c0.8-0.5,1.7-0.8,2.6-0.8c0.5,0,1.1,0.1,1.5,0.3
		c0.4,0.2,0.8,0.5,1.1,0.9c0.3,0.4,0.5,0.8,0.5,1.3l-0.1,0.2c0.3-0.8,0.9-1.5,1.7-2c0.8-0.4,1.6-0.7,2.5-0.7c0.9,0,1.7,0.3,2.3,0.8
		c0.6,0.6,0.9,1.4,0.9,2.2v7.4h-1.2v-7.1c0-0.6-0.2-1.1-0.6-1.5c-0.4-0.5-1-0.7-1.6-0.7c-0.7,0-1.3,0.2-1.9,0.5
		c-0.6,0.3-1,0.8-1.4,1.4c-0.4,0.6-0.6,1.2-0.6,1.9v5.5h-1.2v-7.1c0-0.6-0.2-1.1-0.6-1.5c-0.4-0.4-1-0.7-1.7-0.7
		c-0.7,0-1.3,0.2-1.9,0.5c-1.2,0.7-1.9,2-1.9,3.4v5.4h-1.2V91.9H213.6z"/>
	<path class="st1" d="M238.5,102.3c-1,0-1.9-0.3-2.7-0.8c-0.8-0.5-1.4-1.2-1.9-2l0.2-0.4v7.8h-1.2V91.8h1.1l0.1,3.3l-0.2-0.8
		c0.5-0.8,1.2-1.5,2-2c0.8-0.5,1.8-0.8,2.8-0.8c0.9,0,1.8,0.2,2.6,0.7c0.8,0.5,1.4,1.1,1.9,1.9c0.5,0.8,0.7,1.8,0.7,2.8
		c0,1-0.2,1.9-0.7,2.7c-0.5,0.8-1.1,1.4-1.9,1.9C240.4,102.1,239.4,102.3,238.5,102.3z M238.3,101.3c0.8,0,1.5-0.2,2.2-0.6
		c0.6-0.4,1.2-0.9,1.6-1.6c0.4-0.7,0.6-1.4,0.6-2.2c0-1.5-0.8-2.9-2.1-3.7c-0.6-0.4-1.4-0.6-2.1-0.6c-1.4,0-2.8,0.7-3.6,1.9
		c-0.4,0.6-0.6,1.3-0.7,2v0.8c0,0.7,0.3,1.4,0.7,1.9C235.6,100.6,236.9,101.3,238.3,101.3L238.3,101.3z"/>
	<path class="st1" d="M251.6,102.3c-0.9,0-1.8-0.2-2.6-0.7c-0.8-0.4-1.4-1.1-1.9-1.8c-0.9-1.8-0.9-3.9,0-5.7c0.5-0.8,1.2-1.4,2-1.8
		c0.9-0.4,1.8-0.6,2.8-0.6c1.8,0,3.5,1.1,4.3,2.8l-0.2,0.4l0.2-2.9h1.1v10.1h-1.2v-3.1l0.3,0.5c-0.1,0.4-0.4,0.7-0.6,1
		c-0.3,0.4-0.7,0.7-1.1,0.9c-0.4,0.3-0.9,0.5-1.4,0.7C252.7,102.2,252.2,102.3,251.6,102.3z M251.9,101.3c0.7,0,1.4-0.2,2-0.5
		c0.6-0.3,1.1-0.8,1.5-1.3c0.4-0.6,0.6-1.3,0.7-2V96c-0.1-0.6-0.4-1.2-0.8-1.7c-0.4-0.5-0.9-0.9-1.5-1.2c-0.6-0.3-1.2-0.4-1.9-0.4
		c-0.7,0-1.5,0.2-2.1,0.5c-0.6,0.4-1.2,0.9-1.5,1.5c-0.4,0.7-0.6,1.5-0.6,2.3c0,0.8,0.2,1.5,0.6,2.2c0.4,0.6,0.9,1.2,1.5,1.6
		C250.4,101,251.1,101.2,251.9,101.3L251.9,101.3z"/>
	<path class="st1" d="M263,91.9l0.1,3.2l-0.2-0.6c0.3-0.9,0.9-1.6,1.7-2.1c0.8-0.5,1.8-0.8,2.7-0.8c0.9,0,1.7,0.3,2.3,0.8
		c0.6,0.6,0.9,1.4,0.9,2.2v7.4h-1.2v-7c0-0.6-0.2-1.2-0.6-1.6c-0.5-0.5-1.1-0.7-1.7-0.7c-0.7,0-1.3,0.2-1.9,0.5
		c-0.6,0.3-1.1,0.8-1.4,1.4c-0.4,0.6-0.5,1.3-0.5,2.1v5.4h-1.2V91.9H263z"/>
	<path class="st1" d="M278.1,102.2l-4.8-10.2h1.4l4.4,9.6L278.1,102.2z M275.9,106.9l6.6-15h1.2l-6.5,15H275.9z"/>
	<path class="st1" d="M294.6,82.4h1.2v19.7h-1.2V82.4z"/>
	<path class="st1" d="M300.2,88.2c0-0.2,0.1-0.5,0.3-0.6c0.2-0.2,0.4-0.2,0.6-0.2c0.2,0,0.5,0.1,0.6,0.2c0.3,0.3,0.3,0.9,0,1.2
		c0,0,0,0,0,0c-0.2,0.2-0.4,0.3-0.6,0.2c-0.2,0-0.5-0.1-0.6-0.3C300.3,88.7,300.2,88.4,300.2,88.2z M300.5,91.9h1.2v10.1h-1.2V91.9z"
		/>
	<path class="st1" d="M307.4,91.9l0.1,2.8l-0.2-0.3c0.3-0.9,0.9-1.6,1.7-2.1c0.8-0.5,1.7-0.8,2.6-0.8c0.5,0,1.1,0.1,1.5,0.3
		c0.4,0.2,0.8,0.5,1.1,0.9c0.3,0.4,0.5,0.8,0.5,1.3l-0.1,0.2c0.3-0.8,0.9-1.5,1.7-2c0.8-0.4,1.6-0.7,2.5-0.7c0.9,0,1.7,0.3,2.3,0.8
		c0.6,0.6,0.9,1.4,0.9,2.2v7.4h-1.2v-7.1c0-0.6-0.2-1.1-0.6-1.5c-0.4-0.5-1-0.7-1.7-0.7c-0.7,0-1.3,0.2-1.9,0.5
		c-0.6,0.3-1,0.8-1.4,1.4c-0.4,0.6-0.6,1.2-0.6,1.9v5.5h-1.2v-7.1c0-0.6-0.2-1.1-0.6-1.5c-0.4-0.4-1-0.7-1.7-0.7
		c-0.7,0-1.3,0.2-1.9,0.5c-0.6,0.3-1,0.8-1.4,1.4c-0.4,0.6-0.5,1.3-0.5,2v5.4h-1.2V91.9H307.4z"/>
	<path class="st1" d="M326.4,88.2c0-0.2,0.1-0.5,0.3-0.6c0.2-0.2,0.4-0.2,0.6-0.2c0.2,0,0.5,0.1,0.6,0.2c0.3,0.3,0.3,0.9,0,1.2
		c0,0,0,0,0,0c-0.2,0.2-0.4,0.3-0.6,0.2c-0.2,0-0.5-0.1-0.6-0.3C326.5,88.7,326.4,88.4,326.4,88.2z M326.7,91.9h1.2v10.1h-1.2V91.9z"
		/>
	<path class="st1" d="M333.5,87.5h1.2v4.6h3.1v1h-3.1v9h-1.2V93h-2.1v-1h2.1V87.5z"/>
	<path class="st1" d="M345.3,102.3c-1,0-1.9-0.2-2.8-0.7c-0.8-0.5-1.5-1.1-1.9-1.9c-0.5-0.8-0.7-1.8-0.7-2.7c0-0.9,0.2-1.9,0.7-2.7
		c0.5-0.8,1.2-1.5,2-1.9c0.8-0.5,1.8-0.7,2.7-0.7c1.1,0,2.2,0.4,3,1.1c0.8,0.7,1.5,1.7,1.8,2.8l-8.9,3.4l-0.4-0.9l8.1-3.2l-0.3,0.4
		c-0.3-0.7-0.7-1.3-1.3-1.8c-0.6-0.5-1.4-0.8-2.2-0.8c-0.7,0-1.5,0.2-2.1,0.6c-0.6,0.4-1.1,0.9-1.5,1.5c-0.4,0.7-0.6,1.4-0.6,2.2
		c0,0.7,0.2,1.5,0.5,2.1c0.7,1.4,2.1,2.2,3.7,2.2c0.5,0,1.1-0.1,1.6-0.3c0.5-0.2,1-0.5,1.4-0.8l0.6,0.9c-0.5,0.4-1.1,0.7-1.7,0.9
		C346.6,102.1,346,102.3,345.3,102.3z"/>
	<path class="st1" d="M357.7,102.3c-1.8,0-3.6-1-4.4-2.6c-0.5-0.8-0.7-1.8-0.7-2.7c0-1,0.2-2,0.7-2.8c0.4-0.8,1.1-1.4,1.9-1.8
		c1.7-0.9,3.7-0.9,5.4,0.1c0.8,0.5,1.5,1.2,1.9,2l-0.2,0.6V82.4h1.2v19.7h-1.2V99l0.3,0.6c-0.4,0.8-1.1,1.5-1.9,2
		C359.7,102,358.7,102.3,357.7,102.3z M358,101.2c0.7,0,1.4-0.2,2.1-0.5c1.2-0.7,2.1-1.9,2.1-3.3v-1.3c-0.1-0.6-0.4-1.2-0.8-1.8
		c-0.4-0.5-0.9-0.9-1.5-1.2c-1.3-0.6-2.8-0.6-4.1,0.1c-0.6,0.4-1.2,0.9-1.5,1.5c-0.4,0.7-0.6,1.4-0.6,2.2c0,0.8,0.2,1.5,0.6,2.2
		c0.4,0.6,0.9,1.2,1.5,1.6C356.5,101,357.2,101.2,358,101.2L358,101.2z"/>
</svg>
